<svg id="Layer_1" data-name="Layer 1" xmlns="http://www.w3.org/2000/svg" xmlns:xlink="http://www.w3.org/1999/xlink" viewBox="0 0 1200 900"><defs><style>.cls-1,.cls-24,.cls-25,.cls-29{fill:none;}.cls-2{clip-path:url(#clip-path);}.cls-3{fill:#3d934d;}.cls-4{fill:#008fbb;}.cls-5{fill:#fcfcfc;opacity:0.82;}.cls-5,.cls-6{isolation:isolate;}.cls-6{fill:#ff95d5;opacity:0.53;}.cls-7{fill:#f498f4;}.cls-8{fill:#d868d8;}.cls-9{fill:#90e26f;}.cls-10{fill:#9fd5f7;}.cls-11{fill:#6abf7e;}.cls-12{fill:#f3c6f7;}.cls-13{fill:#d4f9da;}.cls-14{fill:#e2e8f7;}.cls-15{fill:#335587;}.cls-16{clip-path:url(#clip-path-2);}.cls-17{fill:#efc337;}.cls-18{fill:#fcd559;}.cls-19{fill:#f9eeaf;}.cls-20{fill:#9b6fa3;}.cls-21{fill:#f3e2f7;}.cls-22{clip-path:url(#clip-path-3);}.cls-23{fill:#c1c1bf;}.cls-24,.cls-25,.cls-29{stroke:#fff;stroke-miterlimit:10;stroke-width:0.5px;}.cls-25{stroke-dasharray:2.01 2.01;}.cls-26{fill:#cc92ea;}.cls-27{fill:#f99635;}.cls-28{fill:#fcdcc5;}.cls-29{stroke-dasharray:3 3;}.cls-30{fill:url(#radial-gradient);}.cls-31{fill:#8c6414;}.cls-32{fill:url(#radial-gradient-2);}.cls-33{fill:url(#radial-gradient-3);}.cls-34{fill:url(#radial-gradient-4);}.cls-35{fill:url(#radial-gradient-5);}.cls-36{fill:url(#radial-gradient-6);}.cls-37{fill:url(#radial-gradient-7);}.cls-38{fill:#6d501d;}.cls-39{fill:#11772b;}.cls-40{clip-path:url(#clip-path-4);}</style><clipPath id="clip-path"><rect class="cls-1" x="-1446.13" width="1200" height="900"/></clipPath><clipPath id="clip-path-2"><rect class="cls-1" y="4.49" width="1200" height="907.88"/></clipPath><clipPath id="clip-path-3"><rect class="cls-1" x="1541.11" width="1200" height="900"/></clipPath><radialGradient id="radial-gradient" cx="1300.98" cy="-87.49" r="46.64" gradientTransform="matrix(1.12, 0, 0, -0.7, -275.8, 834.22)" gradientUnits="userSpaceOnUse"><stop offset="0" stop-color="#5d9641"/><stop offset="1" stop-color="#11772b"/></radialGradient><radialGradient id="radial-gradient-2" cx="486.47" cy="738.95" r="25.11" gradientTransform="matrix(1.12, 0, 0, -0.9, -275.8, 854.27)" xlink:href="#radial-gradient"/><radialGradient id="radial-gradient-3" cx="518.05" cy="721.97" r="25.11" gradientTransform="matrix(1.12, 0, 0, -0.9, -275.8, 854.27)" xlink:href="#radial-gradient"/><radialGradient id="radial-gradient-4" cx="668.08" cy="750.37" r="21.77" gradientTransform="matrix(1.12, 0, 0, -0.9, -275.8, 854.27)" xlink:href="#radial-gradient"/><radialGradient id="radial-gradient-5" cx="680" cy="466.03" r="26.29" gradientTransform="matrix(1.12, 0, 0, -0.9, -275.8, 854.27)" xlink:href="#radial-gradient"/><radialGradient id="radial-gradient-6" cx="650.65" cy="435.61" r="26.37" gradientTransform="matrix(1.12, 0, 0, -0.9, -275.8, 854.27)" xlink:href="#radial-gradient"/><radialGradient id="radial-gradient-7" cx="623.24" cy="395.94" r="31.08" gradientTransform="matrix(1.12, 0, 0, -0.9, -275.8, 854.27)" xlink:href="#radial-gradient"/><clipPath id="clip-path-4"><rect class="cls-1" x="1543.82" y="1308.26" width="1197.29" height="900"/></clipPath></defs><title>Artboard 1 copy 3</title><g class="cls-2"><g id="Layer_1-2" data-name="Layer 1"><rect class="cls-3" x="-2093.92" y="-727.27" width="4408.26" height="4090.91"/><rect class="cls-4" x="-2093.92" y="-727.27" width="4408.26" height="1859.09"/><path class="cls-5" d="M705.73,1140.91s-15.51-95.86,93-95.86c0,0,15.51-76.69,116.2-76.69,0,0,23.25-48,62-48,0,0,15.46-67.09,123.94-67.09,0,0,7.75-57.55,85.23-57.55s100.73,77,100.73,77,69.8,19.13,77.47,76.68c0,0,85.23-67.09,139.6,38.32,0,0,38.75-67.09,93-57.5,0,0,38.75-278,255.67-182.14,0,0,116.24-9.59,139.6,95.86,0,0,46.51,9.6,62,67.1,0,0,155-86.37,155,115,0,0,95.25,0,101.87,115.05Z"/><path class="cls-5" d="M-1215.54,1195.45s-15.5-95.86,93-95.86c0,0,15.5-76.68,116.19-76.68,0,0,23.25-48,62-48,0,0,15.47-67.09,124-67.09,0,0,7.75-57.54,85.22-57.54s100.73,76.95,100.73,76.95,69.8,19.14,77.48,76.68c0,0,85.22-67.09,139.59,38.32,0,0,38.76-67.09,93-57.5,0,0,38.75-278,255.68-182.13,0,0,116.23-9.59,139.59,95.86,0,0,46.51,9.59,62,67.09,0,0,155-86.36,155,115.05,0,0,95.26,0,101.87,115Z"/><polygon class="cls-6" points="-2097.6 381.82 444.5 495 -2097.6 590.91 -2097.6 381.82"/><polygon class="cls-7" points="1105.74 495.45 973.49 377.27 973.49 1113.09 1148.17 1113.09 1105.74 495.45"/><rect class="cls-8" x="1105.74" y="495.45" width="551.03" height="1331.82"/><rect class="cls-9" x="290.21" y="45.45" width="495.93" height="1181.82"/><rect class="cls-10" x="-106.53" y="272.73" width="448.17" height="1577.27"/><polygon class="cls-11" points="786.14 45.45 925.74 -95.45 925.74 1104.55 786.14 1214.64 786.14 45.45"/><rect class="cls-4" x="407.76" y="100" width="51.43" height="63.64"/><rect class="cls-4" x="481.24" y="100" width="51.43" height="63.64"/><rect class="cls-4" x="554.71" y="100" width="51.43" height="63.64"/><rect class="cls-4" x="628.18" y="100" width="51.43" height="63.64"/><rect class="cls-4" x="701.65" y="100" width="51.43" height="63.64"/><rect class="cls-4" x="407.76" y="200" width="51.43" height="63.64"/><rect class="cls-4" x="481.24" y="200" width="51.43" height="63.64"/><rect class="cls-4" x="554.71" y="200" width="51.43" height="63.64"/><rect class="cls-4" x="628.18" y="200" width="51.43" height="63.64"/><rect class="cls-4" x="701.65" y="200" width="51.43" height="63.64"/><rect class="cls-4" x="407.76" y="300" width="51.43" height="63.64"/><rect class="cls-4" x="481.24" y="300" width="51.43" height="63.64"/><rect class="cls-4" x="554.71" y="300" width="51.43" height="63.64"/><rect class="cls-4" x="628.18" y="300" width="51.43" height="63.64"/><rect class="cls-4" x="701.65" y="300" width="51.43" height="63.64"/><rect class="cls-4" x="407.76" y="400" width="51.43" height="63.64"/><rect class="cls-4" x="481.24" y="400" width="51.43" height="63.64"/><rect class="cls-4" x="554.71" y="400" width="51.43" height="63.64"/><rect class="cls-4" x="628.18" y="400" width="51.43" height="63.64"/><rect class="cls-4" x="701.65" y="400" width="51.43" height="63.64"/><rect class="cls-4" x="407.76" y="500" width="51.43" height="63.64"/><rect class="cls-4" x="481.24" y="500" width="51.43" height="63.64"/><rect class="cls-4" x="554.71" y="500" width="51.43" height="63.64"/><rect class="cls-4" x="628.18" y="500" width="51.43" height="63.64"/><rect class="cls-4" x="701.65" y="500" width="51.43" height="63.64"/><rect class="cls-4" x="407.76" y="600" width="51.43" height="63.64"/><rect class="cls-4" x="481.24" y="600" width="51.43" height="63.64"/><rect class="cls-4" x="554.71" y="600" width="51.43" height="63.64"/><rect class="cls-4" x="628.18" y="600" width="51.43" height="63.64"/><rect class="cls-4" x="701.65" y="600" width="51.43" height="63.64"/><rect class="cls-4" x="407.76" y="700" width="51.43" height="63.64"/><rect class="cls-4" x="481.24" y="700" width="51.43" height="63.64"/><rect class="cls-4" x="554.71" y="700" width="51.43" height="63.64"/><rect class="cls-4" x="628.18" y="700" width="51.43" height="63.64"/><rect class="cls-4" x="701.65" y="700" width="51.43" height="63.64"/><rect class="cls-4" x="407.76" y="800" width="51.43" height="63.64"/><rect class="cls-4" x="481.24" y="800" width="51.43" height="63.64"/><rect class="cls-4" x="554.71" y="800" width="51.43" height="63.64"/><rect class="cls-4" x="628.18" y="800" width="51.43" height="63.64"/><rect class="cls-4" x="701.65" y="800" width="51.43" height="63.64"/><rect class="cls-4" x="337.97" y="100" width="51.43" height="63.64"/><polygon class="cls-12" points="1105.74 495.45 973.49 377.27 1569.01 377.27 1656.77 495.45 1105.74 495.45"/><polygon class="cls-13" points="290.21 45.45 477.56 -81.82 925.74 -95.45 786.14 45.45 290.21 45.45"/><polygon class="cls-14" points="-106.53 272.73 110.21 155.82 440.83 155.82 341.64 272.73 -106.53 272.73"/><polygon class="cls-15" points="440.83 155.82 440.83 1672.73 341.64 1850 341.64 272.73 440.83 155.82"/><rect class="cls-4" x="11.02" y="363.64" width="51.43" height="63.64"/><rect class="cls-4" x="84.49" y="363.64" width="51.43" height="63.64"/><rect class="cls-4" x="157.96" y="363.64" width="51.43" height="63.64"/><rect class="cls-4" x="231.43" y="363.64" width="51.43" height="63.64"/><rect class="cls-4" x="11.02" y="463.64" width="51.43" height="63.64"/><rect class="cls-4" x="84.49" y="463.64" width="51.43" height="63.64"/><rect class="cls-4" x="157.96" y="463.64" width="51.43" height="63.64"/><rect class="cls-4" x="231.43" y="463.64" width="51.43" height="63.64"/><rect class="cls-4" x="11.02" y="563.64" width="51.43" height="63.64"/><rect class="cls-4" x="84.49" y="563.64" width="51.43" height="63.64"/><rect class="cls-4" x="157.96" y="563.64" width="51.43" height="63.64"/><rect class="cls-4" x="231.43" y="563.64" width="51.43" height="63.64"/><rect class="cls-4" x="11.02" y="663.64" width="51.43" height="63.64"/><rect class="cls-4" x="84.49" y="663.64" width="51.43" height="63.64"/><rect class="cls-4" x="157.96" y="663.64" width="51.43" height="63.64"/><rect class="cls-4" x="231.43" y="663.64" width="51.43" height="63.64"/><rect class="cls-4" x="11.02" y="763.64" width="51.43" height="63.64"/><rect class="cls-4" x="84.49" y="763.64" width="51.43" height="63.64"/><rect class="cls-4" x="157.96" y="763.64" width="51.43" height="63.64"/><rect class="cls-4" x="231.43" y="763.64" width="51.43" height="63.64"/><rect class="cls-4" x="11.02" y="863.64" width="51.43" height="63.64"/><rect class="cls-4" x="84.49" y="863.64" width="51.43" height="63.64"/><rect class="cls-4" x="157.96" y="863.64" width="51.43" height="63.64"/><rect class="cls-4" x="231.43" y="863.64" width="51.43" height="63.64"/><polygon class="cls-4" points="837.57 136.36 811.85 154.54 811.85 90.91 837.57 68.18 837.57 136.36"/><polygon class="cls-4" points="870.63 109.09 844.92 127.27 844.92 63.64 870.63 40.91 870.63 109.09"/><polygon class="cls-4" points="903.69 81.82 877.98 100 877.98 36.36 903.69 13.64 903.69 81.82"/><polygon class="cls-4" points="837.57 227.27 811.85 245.46 811.85 181.82 837.57 159.09 837.57 227.27"/><polygon class="cls-4" points="870.63 200 844.92 218.18 844.92 154.54 870.63 131.82 870.63 200"/><polygon class="cls-4" points="903.69 172.73 877.98 190.91 877.98 127.27 903.69 104.55 903.69 172.73"/><polygon class="cls-4" points="837.57 318.18 811.85 336.36 811.85 272.73 837.57 250 837.57 318.18"/><polygon class="cls-4" points="870.63 290.91 844.92 309.09 844.92 245.46 870.63 222.73 870.63 290.91"/><polygon class="cls-4" points="903.69 263.64 877.98 281.82 877.98 218.18 903.69 195.46 903.69 263.64"/><polygon class="cls-4" points="837.57 409.09 811.85 427.27 811.85 363.64 837.57 340.91 837.57 409.09"/><polygon class="cls-4" points="870.63 381.82 844.92 400 844.92 336.36 870.63 313.64 870.63 381.82"/><polygon class="cls-4" points="903.69 354.55 877.98 372.73 877.98 309.09 903.69 286.36 903.69 354.55"/><polygon class="cls-4" points="837.57 500 811.85 518.18 811.85 454.55 837.57 431.82 837.57 500"/><polygon class="cls-4" points="870.63 472.73 844.92 490.91 844.92 427.27 870.63 404.55 870.63 472.73"/><polygon class="cls-4" points="903.69 445.45 877.98 463.64 877.98 400 903.69 377.27 903.69 445.45"/><polygon class="cls-4" points="837.57 590.91 811.85 609.09 811.85 545.46 837.57 522.73 837.57 590.91"/><polygon class="cls-4" points="870.63 563.64 844.92 581.82 844.92 518.18 870.63 495.45 870.63 563.64"/><polygon class="cls-4" points="903.69 536.36 877.98 554.54 877.98 490.91 903.69 468.18 903.69 536.36"/><polygon class="cls-4" points="837.57 681.82 811.85 700 811.85 636.36 837.57 613.64 837.57 681.82"/><polygon class="cls-4" points="870.63 654.54 844.92 672.73 844.92 609.09 870.63 586.36 870.63 654.54"/><polygon class="cls-4" points="903.69 627.27 877.98 645.46 877.98 581.82 903.69 559.09 903.69 627.27"/><polygon class="cls-4" points="837.57 772.73 811.85 790.91 811.85 727.27 837.57 704.54 837.57 772.73"/><polygon class="cls-4" points="870.63 745.46 844.92 763.64 844.92 700 870.63 677.27 870.63 745.46"/><polygon class="cls-4" points="903.69 718.18 877.98 736.36 877.98 672.73 903.69 650 903.69 718.18"/><polygon class="cls-4" points="837.57 863.64 811.85 881.82 811.85 818.18 837.57 795.46 837.57 863.64"/><polygon class="cls-4" points="870.63 836.36 844.92 854.54 844.92 790.91 870.63 768.18 870.63 836.36"/><polygon class="cls-4" points="903.69 809.09 877.98 827.27 877.98 763.64 903.69 740.91 903.69 809.09"/><polygon class="cls-4" points="837.57 954.54 811.85 972.73 811.85 909.09 837.57 886.36 837.57 954.54"/><polygon class="cls-4" points="870.63 927.27 844.92 945.46 844.92 881.82 870.63 859.09 870.63 927.27"/><polygon class="cls-4" points="903.69 900 877.98 918.18 877.98 854.54 903.69 831.82 903.69 900"/><rect class="cls-4" x="1127.78" y="531.82" width="187.35" height="63.64"/><rect class="cls-4" x="1127.78" y="618.18" width="187.35" height="63.64"/><rect class="cls-4" x="1127.78" y="704.55" width="187.35" height="63.64"/><rect class="cls-4" x="1127.78" y="790.91" width="187.35" height="63.64"/><rect class="cls-4" x="1127.78" y="877.27" width="187.35" height="63.64"/></g></g><g class="cls-16"><g id="Layer_1-3" data-name="Layer 1"><rect class="cls-3" x="-2457.48" y="-1149.03" width="7936.67" height="6062.92"/><rect class="cls-4" x="-2457.48" y="-1149.03" width="7936.67" height="2755.26"/><path class="cls-5" d="M696,151.13S723.87,9.06,528.56,9.06c0,0-27.91-113.65-209.2-113.65,0,0-41.87-71.07-111.64-71.07,0,0-27.85-99.43-223.15-99.43,0,0-14-85.29-153.45-85.29s-181.35,114-181.35,114S-475.89-218-489.72-132.68c0,0-153.44-99.43-251.32,56.79,0,0-69.78-99.43-167.4-85.22,0,0-69.78-412-460.33-269.93,0,0-209.26-14.22-251.33,142.07,0,0-83.73,14.22-111.64,99.43,0,0-279-128-279,170.51,0,0-171.5,0-183.41,170.5Z"/><polygon class="cls-6" points="-2464.09 494.7 2112.72 662.44 -2464.09 804.58 -2464.09 494.7"/><rect class="cls-10" x="1120.63" y="333.02" width="806.89" height="2337.59"/><rect class="cls-17" x="326.97" y="353.23" width="582.02" height="1293.42"/><polygon class="cls-18" points="201.3 225.24 201.3 1592.09 326.97 1663.36 326.97 353.23 201.3 225.24"/><polygon class="cls-19" points="326.97 353.23 201.3 225.24 764.14 225.24 908.99 353.23 326.97 353.23"/><polygon class="cls-20" points="-109.55 225.24 225.38 -3.81 225.38 1675.76 -109.55 1863.64 -109.55 225.24"/><polygon class="cls-14" points="1120.63 333.02 1510.85 159.75 2106.1 159.75 1927.53 333.02 1120.63 333.02"/><polygon class="cls-21" points="-863.53 225.24 -506.38 23.14 225.38 -3.81 -109.55 225.24 -863.53 225.24"/><polygon class="cls-4" points="35.96 306.07 -10.34 346.49 -10.34 238.71 35.96 205.03 35.96 306.07"/><polygon class="cls-4" points="95.48 258.92 49.18 299.34 49.18 191.55 95.48 157.87 95.48 258.92"/><polygon class="cls-4" points="155.01 211.76 108.71 252.18 108.71 144.4 155.01 110.71 155.01 211.76"/><polygon class="cls-4" points="214.53 164.61 168.23 205.03 168.23 97.24 214.53 63.56 214.53 164.61"/><polygon class="cls-4" points="35.96 467.75 -10.34 508.17 -10.34 400.39 35.96 366.7 35.96 467.75"/><polygon class="cls-4" points="95.48 420.6 49.18 461.01 49.18 353.23 95.48 319.55 95.48 420.6"/><polygon class="cls-4" points="155.01 373.44 108.71 413.86 108.71 306.07 155.01 272.39 155.01 373.44"/><polygon class="cls-4" points="214.53 326.28 168.23 366.7 168.23 258.92 214.53 225.24 214.53 326.28"/><polygon class="cls-4" points="35.96 629.43 -10.34 669.85 -10.34 562.06 35.96 528.38 35.96 629.43"/><polygon class="cls-4" points="95.48 582.27 49.18 622.69 49.18 514.91 95.48 481.23 95.48 582.27"/><polygon class="cls-4" points="155.01 535.12 108.71 575.54 108.71 467.75 155.01 434.07 155.01 535.12"/><polygon class="cls-4" points="214.53 487.96 168.23 528.38 168.23 420.6 214.53 386.91 214.53 487.96"/><polygon class="cls-4" points="35.96 791.11 -10.34 831.53 -10.34 723.74 35.96 690.06 35.96 791.11"/><polygon class="cls-4" points="95.48 743.95 49.18 784.37 49.18 676.59 95.48 642.9 95.48 743.95"/><polygon class="cls-4" points="155.01 696.8 108.71 737.22 108.71 629.43 155.01 595.75 155.01 696.8"/><polygon class="cls-4" points="214.53 649.64 168.23 690.06 168.23 582.27 214.53 548.59 214.53 649.64"/><polygon class="cls-4" points="35.96 952.79 -10.34 993.21 -10.34 885.42 35.96 851.74 35.96 952.79"/><polygon class="cls-4" points="95.48 905.63 49.18 946.05 49.18 838.26 95.48 804.58 95.48 905.63"/><polygon class="cls-4" points="155.01 858.47 108.71 898.89 108.71 791.11 155.01 757.42 155.01 858.47"/><polygon class="cls-4" points="214.53 811.32 168.23 851.74 168.23 743.95 214.53 710.27 214.53 811.32"/><polygon class="cls-4" points="214.53 973 168.23 1013.41 168.23 905.63 214.53 871.95 214.53 973"/><ellipse class="cls-4" cx="621.28" cy="430.7" rx="23.15" ry="23.58"/><ellipse class="cls-4" cx="621.28" cy="531.75" rx="23.15" ry="23.58"/><ellipse class="cls-4" cx="621.28" cy="626.06" rx="23.15" ry="23.58"/><ellipse class="cls-4" cx="621.28" cy="727.11" rx="23.15" ry="23.58"/><ellipse class="cls-4" cx="621.28" cy="828.16" rx="23.15" ry="23.58"/></g><g id="Layer_3" data-name="Layer 3"><rect class="cls-4" x="373.26" y="400.39" width="178.57" height="53.89"/><rect class="cls-4" x="373.26" y="501.43" width="178.57" height="53.89"/><rect class="cls-4" x="373.26" y="602.48" width="178.57" height="53.89"/><rect class="cls-4" x="373.26" y="703.53" width="178.57" height="53.89"/><rect class="cls-4" x="373.26" y="804.58" width="178.57" height="53.89"/><rect class="cls-4" x="690.73" y="400.39" width="178.57" height="53.89"/><rect class="cls-4" x="690.73" y="501.43" width="178.57" height="53.89"/><rect class="cls-4" x="690.73" y="602.48" width="178.57" height="53.89"/><rect class="cls-4" x="690.73" y="703.53" width="178.57" height="53.89"/><rect class="cls-4" x="690.73" y="804.58" width="178.57" height="53.89"/></g></g><g class="cls-22"><g id="Layer_1-4" data-name="Layer 1"><rect class="cls-3" x="-439.85" y="-852.1" width="3533.83" height="2136.19"/><rect class="cls-4" x="-439.85" y="-852.1" width="3533.83" height="970.78"/><path class="cls-5" d="M-436.58,123.42s-12.42-50,74.54-50c0,0,12.42-40.05,93.14-40.05,0,0,18.64-25,49.71-25,0,0,12.4-35,99.36-35,0,0,6.22-30,68.32-30S29.24-16.61,29.24-16.61s56,10,62.11,40c0,0,68.32-35,111.9,20,0,0,31.07-35,74.54-30,0,0,31.07-145.17,205-95.11,0,0,93.18-5,111.9,50.06,0,0,37.29,5,49.71,35,0,0,124.22-45.09,124.22,60.08,0,0,76.36,0,81.66,60.07Z"/><path class="cls-5" d="M264.3,151.91s-12.43-50.06,74.53-50.06c0,0,12.43-40,93.15-40,0,0,18.64-25,49.71-25,0,0,12.4-35,99.36-35,0,0,6.21-30,68.32-30s80.75,40.19,80.75,40.19,56,10,62.11,40c0,0,68.32-35,111.9,20,0,0,31.07-35,74.53-30,0,0,31.07-145.16,205-95.1,0,0,93.17-5,111.9,50.05,0,0,37.28,5,49.71,35,0,0,124.22-45.1,124.22,60.07,0,0,76.36,0,81.66,60.08Z"/><path class="cls-23" d="M296.37,182.76s-153.9,73.58-82.84,166.15S317,427.24,476,367.9s224.6-19,224.6-19l-203,184s-121.77,62.9-157.11,127-103.07,197,47.12,263.47S585,1019.1,799.94,999.69s273.87,6.69,456.45-9.92S1453.7,902,1400.69,707.32c0,0,8.84-11.87-173.74-144.79s-35.34-4.75,138.4-19S1512.6,531.67,1592.11,451s259.62-80.7,112.14,30.86-203.43,67.43-191.65,171.39S1598,968.41,1892.48,977.9s483,45.1,527.14-132.92,82.45-189.88-61.85-273,47.12-182.76,47.12-182.76,117.8,75.95,100.13-40.35,17.67-173.27,91.29-45.1,170.47,111.56,24.88,189.89-160.35,33.23-95.56,142.41,229.7,358.4-38.28,465.21-524.19,109.19-817.2,72.35-363.69-84.21-625.79-36.74-465.28,76-686.15-11.87S-14.23,820.11,80.69,688.94s195.07-124,133.22-221.35S57.84,405.88,110.84,280.08,158,168.52,322.87,125.8,296.37,182.76,296.37,182.76Z"/><path class="cls-24" d="M272.81,161.4l-2.33,1.45"/><path class="cls-25" d="M265.86,165.91c-32.07,21-161.26,113.43-90.79,194.87,80.07,92.57,122.15,112.74,153.37,116.3,30.07,3.42,142.94-23.73,184.26-49.6"/><path class="cls-24" d="M515,426c.76-.53,1.5-1,2.2-1.55"/><rect class="cls-10" x="1153.32" y="-329.92" width="359.27" height="823.62"/><rect class="cls-17" x="799.94" y="-322.8" width="259.15" height="455.72"/><rect class="cls-4" x="820.56" y="14.24" width="79.51" height="18.99"/><rect class="cls-4" x="820.56" y="49.84" width="79.51" height="18.99"/><polygon class="cls-18" points="743.99 -367.9 743.99 113.69 799.94 138.81 799.94 -322.8 743.99 -367.9"/><rect class="cls-26" x="269.87" y="-367.9" width="335.71" height="716.81"/><polygon class="cls-20" points="605.58 -367.9 754.71 -448.6 754.71 143.17 605.58 209.37 605.58 -367.9"/><rect class="cls-4" x="531.96" y="178.02" width="41.23" height="33.23"/><rect class="cls-4" x="531.96" y="230.23" width="41.23" height="33.23"/><rect class="cls-4" x="293.42" y="-30.86" width="41.23" height="33.23"/><rect class="cls-4" x="352.32" y="-30.86" width="41.23" height="33.23"/><rect class="cls-4" x="411.22" y="-30.86" width="41.23" height="33.23"/><rect class="cls-4" x="470.12" y="-30.86" width="41.23" height="33.23"/><rect class="cls-4" x="529.01" y="-30.86" width="41.23" height="33.23"/><rect class="cls-4" x="293.42" y="21.36" width="41.23" height="33.23"/><rect class="cls-4" x="352.32" y="21.36" width="41.23" height="33.23"/><rect class="cls-4" x="411.22" y="21.36" width="41.23" height="33.23"/><rect class="cls-4" x="470.12" y="21.36" width="41.23" height="33.23"/><rect class="cls-4" x="529.01" y="21.36" width="41.23" height="33.23"/><rect class="cls-4" x="293.42" y="73.58" width="41.23" height="33.23"/><rect class="cls-4" x="352.32" y="73.58" width="41.23" height="33.23"/><rect class="cls-4" x="411.22" y="73.58" width="41.23" height="33.23"/><rect class="cls-4" x="470.12" y="73.58" width="41.23" height="33.23"/><rect class="cls-4" x="529.01" y="73.58" width="41.23" height="33.23"/><rect class="cls-4" x="293.42" y="125.8" width="41.23" height="33.23"/><rect class="cls-4" x="352.32" y="125.8" width="41.23" height="33.23"/><rect class="cls-4" x="411.22" y="125.8" width="41.23" height="33.23"/><rect class="cls-4" x="470.12" y="125.8" width="41.23" height="33.23"/><rect class="cls-4" x="529.01" y="125.8" width="41.23" height="33.23"/><rect class="cls-4" x="293.42" y="178.02" width="41.23" height="33.23"/><rect class="cls-4" x="352.32" y="178.02" width="41.23" height="33.23"/><rect class="cls-4" x="411.22" y="178.02" width="41.23" height="33.23"/><rect class="cls-4" x="470.12" y="178.02" width="41.23" height="33.23"/><rect class="cls-4" x="293.42" y="230.23" width="41.23" height="33.23"/><rect class="cls-4" x="352.32" y="230.23" width="41.23" height="33.23"/><rect class="cls-4" x="411.22" y="230.23" width="41.23" height="33.23"/><rect class="cls-4" x="470.12" y="230.23" width="41.23" height="33.23"/><rect class="cls-4" x="1188.66" y="-21.36" width="41.23" height="33.23"/><rect class="cls-4" x="1188.66" y="30.86" width="41.23" height="33.23"/><rect class="cls-4" x="1188.66" y="83.07" width="41.23" height="33.23"/><rect class="cls-4" x="1188.66" y="135.29" width="41.23" height="33.23"/><rect class="cls-4" x="1188.66" y="187.51" width="41.23" height="33.23"/><rect class="cls-4" x="1188.66" y="239.73" width="41.23" height="33.23"/><rect class="cls-4" x="1188.66" y="291.95" width="41.23" height="33.23"/><rect class="cls-4" x="1188.66" y="344.16" width="41.23" height="33.23"/><rect class="cls-4" x="531.96" y="282.45" width="41.23" height="33.23"/><rect class="cls-27" x="514.29" y="175.64" width="795.11" height="714.44"/><polygon class="cls-4" points="640.92 135.29 620.3 149.53 620.3 111.56 640.92 99.69 640.92 135.29"/><polygon class="cls-4" points="670.37 116.3 649.75 130.54 649.75 92.57 670.37 80.7 670.37 116.3"/><polygon class="cls-4" points="696.87 99.69 676.26 113.93 676.26 75.95 696.87 64.09 696.87 99.69"/><polygon class="cls-4" points="723.38 83.07 702.76 97.31 702.76 59.34 723.38 47.47 723.38 83.07"/><polygon class="cls-4" points="749.88 66.46 729.26 80.7 729.26 42.72 749.88 30.86 749.88 66.46"/><polygon class="cls-4" points="640.92 21.36 620.3 35.6 620.3 -2.37 640.92 -14.24 640.92 21.36"/><polygon class="cls-4" points="670.37 2.37 649.75 16.61 649.75 -21.36 670.37 -33.23 670.37 2.37"/><polygon class="cls-4" points="640.92 78.33 620.3 92.57 620.3 54.59 640.92 42.72 640.92 78.33"/><polygon class="cls-4" points="670.37 59.34 649.75 73.58 649.75 35.6 670.37 23.73 670.37 59.34"/><polygon class="cls-4" points="696.87 42.72 676.26 56.97 676.26 18.99 696.87 7.12 696.87 42.72"/><polygon class="cls-4" points="723.38 26.11 702.76 40.35 702.76 2.37 723.38 -9.49 723.38 26.11"/><polygon class="cls-4" points="749.88 9.49 729.26 23.73 729.26 -14.24 749.88 -26.11 749.88 9.49"/><polygon class="cls-28" points="514.29 175.64 873.56 33.23 1247.21 33.23 1309.4 175.64 514.29 175.64"/><rect class="cls-4" x="596.75" y="239.73" width="76.57" height="61.71"/><rect class="cls-4" x="705.71" y="239.73" width="185.53" height="61.71"/><rect class="cls-4" x="923.63" y="239.73" width="76.57" height="61.71"/><rect class="cls-4" x="1035.53" y="239.73" width="182.58" height="61.71"/><rect class="cls-4" x="596.75" y="339.42" width="76.57" height="61.71"/><rect class="cls-4" x="705.71" y="339.42" width="185.53" height="61.71"/><rect class="cls-4" x="923.63" y="339.42" width="76.57" height="61.71"/><rect class="cls-4" x="1035.53" y="339.42" width="182.58" height="61.71"/><rect class="cls-4" x="596.75" y="439.11" width="76.57" height="61.71"/><rect class="cls-4" x="705.71" y="439.11" width="185.53" height="61.71"/><rect class="cls-4" x="923.63" y="439.11" width="76.57" height="61.71"/><rect class="cls-4" x="1035.53" y="439.11" width="182.58" height="61.71"/><rect class="cls-4" x="596.75" y="538.79" width="76.57" height="61.71"/><rect class="cls-4" x="705.71" y="538.79" width="185.53" height="61.71"/><rect class="cls-4" x="923.63" y="538.79" width="76.57" height="61.71"/><rect class="cls-4" x="1035.53" y="538.79" width="182.58" height="61.71"/><rect class="cls-4" x="596.75" y="638.48" width="76.57" height="61.71"/><rect class="cls-4" x="705.71" y="638.48" width="185.53" height="61.71"/><rect class="cls-4" x="923.63" y="638.48" width="76.57" height="61.71"/><rect class="cls-4" x="1035.53" y="638.48" width="182.58" height="61.71"/><rect class="cls-4" x="596.75" y="738.17" width="76.57" height="61.71"/><rect class="cls-4" x="705.71" y="738.17" width="185.53" height="61.71"/><rect class="cls-4" x="923.63" y="738.17" width="76.57" height="61.71"/><rect class="cls-4" x="1035.53" y="738.17" width="182.58" height="61.71"/><path class="cls-24" d="M325,476.63l-1.68,3.28"/><path class="cls-29" d="M319.93,486.58c-25.8,50.39-141.74,277.7-144.3,296.69-2.94,21.36,8.83,175.64,106,227.86s281.23,93.49,315.1,93.64,422.58-30.86,505-45.1,388.72-11.87,432.89,0,697.94,78.33,811.31-8.36,187.62-240.86,177-306.18c-10-61.31-72.09-168.36-72.68-209.3"/><ellipse class="cls-4" cx="930.99" cy="24.92" rx="10.31" ry="8.31"/><path class="cls-30" d="M1178.59,926.18h0c-16.49,0-40-13.13-40-23.43V879.33c0-10.3,26-29.67,42.46-29.67h0c16.5,0,40,19.37,40,29.67v23.42C1221.06,913.05,1195.08,926.18,1178.59,926.18Z"/><rect class="cls-31" x="263.77" y="349.88" width="8.07" height="22.76"/><path class="cls-32" d="M267.8,364h0c-8.83,0-21.49-7.12-21.49-12.6v-12.6c0-5.56,14-16,22.85-16h0c8.83,0,21.53,10.42,21.53,16v12.5C290.69,356.91,276.7,364,267.8,364Z"/><rect class="cls-31" x="299.11" y="361.75" width="8.07" height="22.76"/><path class="cls-33" d="M303.14,375.85h0c-8.83,0-21.49-7.12-21.49-12.6V350.64c0-5.55,14-16,22.85-16h0c8.83,0,21.52,10.42,21.52,16v12.51C326,368.78,312,375.85,303.14,375.85Z"/><rect class="cls-31" x="467.61" y="341.05" width="7.01" height="19.72"/><path class="cls-34" d="M471.09,353.25h0c-7.69,0-18.64-6.12-18.64-10.91V331.39c0-4.74,12.13-13.83,19.82-13.83h0c7.68,0,18.67,9,18.67,13.83v10.95C490.94,347.13,479,353.25,471.09,353.25Z"/><rect class="cls-31" x="480.1" y="541.07" width="8.45" height="23.83"/><path class="cls-35" d="M484.34,555.81h0c-9.31,0-22.56-7.38-22.56-13.19v-13.2c0-5.82,14.73-16.62,23.94-16.62h0c9.31,0,22.56,10.92,22.56,16.62v13.2C508.4,548.43,493.68,555.81,484.34,555.81Z"/><rect class="cls-31" x="447.23" y="562.36" width="8.48" height="23.9"/><path class="cls-36" d="M451.48,577.15h0c-9.31,0-22.59-7.4-22.59-13.24V550.66c0-5.84,14.72-16.78,24-16.78h0c9.33,0,22.62,10.94,22.62,16.78v13.22C475.51,569.65,460.81,577.15,451.48,577.15Z"/><rect class="cls-31" x="415.7" y="591.32" width="9.98" height="28.17"/><path class="cls-37" d="M420.7,608.77h0c-11,0-26.65-8.74-26.65-15.62v-15.6c0-6.86,17.32-19.77,28.3-19.77h0c11,0,26.65,12.91,26.65,19.77v15.6C449,600,431.83,608.77,420.7,608.77Z"/><rect class="cls-38" x="239.53" y="219.22" width="6.07" height="20.51"/><polygon class="cls-39" points="242.54 187.51 229.84 203.63 237.3 203.63 226.19 216.11 235.23 216.11 224.51 229 261.8 229 251.64 217.27 258.91 217.27 247.99 203.63 255.26 203.63 242.54 187.51"/></g><g id="Layer_3-2" data-name="Layer 3"><rect class="cls-4" x="961.91" y="14.24" width="79.51" height="18.99"/></g></g><g class="cls-40"><g id="Layer_1-5" data-name="Layer 1"><rect class="cls-3" x="-1591.19" y="503.69" width="4854.21" height="3750.87"/><rect class="cls-4" x="-1591.19" y="503.69" width="4854.21" height="1704.56"/><polygon class="cls-6" points="3267.07 741.25 467.81 845.02 3267.07 932.96 3267.07 741.25"/></g></g></svg>